<svg xmlns="http://www.w3.org/2000/svg" xmlns:xlink="http://www.w3.org/1999/xlink" width="500" zoomAndPan="magnify" viewBox="0 0 375 374.999991" height="500" preserveAspectRatio="xMidYMid meet" version="1.0"><defs><clipPath id="ff708960ce"><path d="M 60.691406 85 L 280 85 L 280 363.875 L 60.691406 363.875 Z M 60.691406 85 " clip-rule="nonzero"/></clipPath><clipPath id="ccd9a9ac8a"><path d="M 95 14 L 314.191406 14 L 314.191406 293 L 95 293 Z M 95 14 " clip-rule="nonzero"/></clipPath><clipPath id="fc054ed70d"><path d="M 87.132812 59.007812 L 102.296875 59.007812 L 102.296875 74.171875 L 87.132812 74.171875 Z M 87.132812 59.007812 " clip-rule="nonzero"/></clipPath><clipPath id="ef3c9676e3"><path d="M 94.714844 59.007812 C 90.527344 59.007812 87.132812 62.402344 87.132812 66.589844 C 87.132812 70.777344 90.527344 74.171875 94.714844 74.171875 C 98.902344 74.171875 102.296875 70.777344 102.296875 66.589844 C 102.296875 62.402344 98.902344 59.007812 94.714844 59.007812 Z M 94.714844 59.007812 " clip-rule="nonzero"/></clipPath></defs><g clip-path="url(#ff708960ce)"><path fill="#ff7204" d="M 243.75 294.296875 C 243.75 259.679688 243.75 225.589844 243.75 191.496094 C 243.3125 191.328125 242.871094 191.160156 242.433594 190.988281 C 224.304688 213.75 206.171875 236.503906 187.386719 260.089844 C 180.699219 251.757812 174.292969 243.785156 167.320312 235.101562 C 133.125 278.070312 99.203125 320.6875 65.003906 363.664062 C 63.441406 362.414062 62.191406 361.414062 60.707031 360.226562 C 133.511719 268.699219 206.042969 177.503906 279.496094 85.148438 C 279.496094 155.742188 279.496094 224.847656 279.496094 294.296875 C 267.761719 294.296875 256.328125 294.296875 243.75 294.296875 Z M 243.75 294.296875 " fill-opacity="1" fill-rule="nonzero"/></g><g clip-path="url(#ccd9a9ac8a)"><path fill="#ff7204" d="M 95.289062 86.101562 C 121.859375 119.488281 147.59375 151.832031 173.90625 184.898438 C 175.90625 182.5 177.664062 180.457031 179.335938 178.351562 C 221.535156 125.273438 263.71875 72.164062 305.984375 19.128906 C 307.847656 16.796875 309.609375 11.40625 314.265625 17.546875 C 261.226562 84.230469 208.148438 150.96875 154.457031 218.480469 C 146.976562 209.214844 139.851562 200.375 131.890625 190.527344 C 131.589844 193.117188 131.261719 194.597656 131.261719 196.089844 C 131.234375 211.476562 131.421875 226.871094 131.105469 242.25 C 131.035156 245.414062 129.847656 249.09375 127.929688 251.585938 C 117.550781 265.144531 106.777344 278.414062 95.28125 292.851562 C 95.289062 223.5625 95.289062 155.582031 95.289062 86.101562 Z M 95.289062 86.101562 " fill-opacity="1" fill-rule="nonzero"/></g><g clip-path="url(#fc054ed70d)"><g clip-path="url(#ef3c9676e3)"><path fill="#ff7204" d="M 87.132812 59.007812 L 102.296875 59.007812 L 102.296875 74.171875 L 87.132812 74.171875 Z M 87.132812 59.007812 " fill-opacity="1" fill-rule="nonzero"/></g></g></svg>